HIERARCHY
ROOT root
{
	OFFSET 0.000000 0.000000 0.000000
	CHANNELS 6 Xposition Yposition Zposition Zrotation Yrotation Xrotation
	JOINT lhip
	{
		OFFSET 0.058581 -0.082280 -0.017664
		CHANNELS 3 Zrotation Yrotation Xrotation
		JOINT lknee
		{
			OFFSET 0.043451 -0.386469 0.008037
			CHANNELS 3 Zrotation Yrotation Xrotation
			JOINT lankle
			{
				OFFSET -0.014790 -0.426874 -0.037428
				CHANNELS 3 Zrotation Yrotation Xrotation
				JOINT ltoe
				{
					OFFSET 0.041054 -0.060286 0.122042
					CHANNELS 3 Zrotation Yrotation Xrotation
					End Site
					{
						OFFSET 0.000000 0.000000 0.000000
					}
				}
			}
		}
	}
	JOINT rhip
	{
		OFFSET -0.060310 -0.090513 -0.013543
		CHANNELS 3 Zrotation Yrotation Xrotation
		JOINT rknee
		{
			OFFSET -0.043257 -0.383688 -0.004843
			CHANNELS 3 Zrotation Yrotation Xrotation
			JOINT rankle
			{
				OFFSET 0.019056 -0.420046 -0.034562
				CHANNELS 3 Zrotation Yrotation Xrotation
				JOINT rtoe
				{
					OFFSET -0.034840 -0.062106 0.130323
					CHANNELS 3 Zrotation Yrotation Xrotation
					End Site
					{
						OFFSET 0.000000 0.000000 0.000000
					}
				}
			}
		}
	}
	JOINT lowerback
	{
		OFFSET 0.004439 0.124404 -0.038385
		CHANNELS 3 Zrotation Yrotation Xrotation
		JOINT upperback
		{
			OFFSET 0.004488 0.137956 0.026820
			CHANNELS 3 Zrotation Yrotation Xrotation
			JOINT chest
			{
				OFFSET -0.002265 0.056032 0.002855
				CHANNELS 3 Zrotation Yrotation Xrotation
				JOINT lowerneck
				{
					OFFSET -0.013390 0.211636 -0.033468
					CHANNELS 3 Zrotation Yrotation Xrotation
					JOINT upperneck
					{
						OFFSET 0.010113 0.088937 0.050410
						CHANNELS 3 Zrotation Yrotation Xrotation
						End Site
						{
							OFFSET 0.000000 0.000000 0.000000
						}
					}
				}
				JOINT lclavicle
				{
					OFFSET 0.071702 0.114000 -0.018898
					CHANNELS 3 Zrotation Yrotation Xrotation
					JOINT lshoulder
					{
						OFFSET 0.122921 0.045205 -0.019046
						CHANNELS 3 Zrotation Yrotation Xrotation
						JOINT lelbow
						{
							OFFSET 0.255332 -0.015649 -0.022946
							CHANNELS 3 Zrotation Yrotation Xrotation
							JOINT lwrist
							{
								OFFSET 0.265709 0.012698 -0.007375
								CHANNELS 3 Zrotation Yrotation Xrotation
								End Site
								{
									OFFSET 0.000000 0.000000 0.000000
								}
							}
						}
					}
				}
				JOINT rclavicle
				{
					OFFSET -0.082954 0.112472 -0.023707
					CHANNELS 3 Zrotation Yrotation Xrotation
					JOINT rshoulder
					{
						OFFSET -0.113228 0.046853 -0.008472
						CHANNELS 3 Zrotation Yrotation Xrotation
						JOINT relbow
						{
							OFFSET -0.260127 -0.014369 -0.031269
							CHANNELS 3 Zrotation Yrotation Xrotation
							JOINT rwrist
							{
								OFFSET -0.269108 0.006794 -0.006027
								CHANNELS 3 Zrotation Yrotation Xrotation
								End Site
								{
									OFFSET 0.000000 0.000000 0.000000
								}
							}
						}
					}
				}
			}
		}
	}
}
MOTION
Frames: 5
Frame Time: 0.033333
0.619599 0.228757 0.984669 79.888958 1.851847 88.405066 6.708161 4.361249 7.039347 -3.711110 -4.347399 2.183766 3.534754 9.982396 -11.135545 0.000000 -0.000000 0.000000 -5.599543 -3.346310 -5.318855 2.428865 -2.827120 17.664172 4.794195 -4.799209 -9.672184 0.000000 -0.000000 0.000000 -3.037524 -0.639277 4.135315 4.250335 -4.052761 0.554422 1.563504 -4.145658 1.988041 7.408474 -12.148853 10.653663 2.321357 -15.438827 12.219133 -26.020360 6.153528 2.822223 -58.620320 -11.758506 8.150351 9.017865 -26.822111 3.877824 -5.156786 -0.647784 -6.145975 29.205359 -4.378352 0.856664 56.122840 5.839194 9.289845 -17.809101 23.196211 -13.914016 5.622832 1.310767 -8.879745 
0.621142 0.227598 0.984687 80.117201 1.852033 88.580941 6.800328 4.448881 6.979871 -3.803156 -4.464667 2.022904 3.534632 9.873795 -11.211268 0.000000 -0.000000 0.000000 -5.595152 -3.339919 -5.291526 2.381025 -3.104608 17.519156 4.865914 -4.747741 -9.623788 0.000000 -0.000000 0.000000 -2.989634 -0.599590 4.835112 4.291157 -3.985443 -0.649079 1.663905 -3.960515 1.464341 6.864749 -12.763049 8.853954 2.423205 -16.470081 11.095348 -25.592500 6.053922 2.878859 -59.210763 -11.185180 8.510772 8.455450 -25.789576 5.006362 -5.340954 -0.705020 -5.958219 28.064339 -4.757945 -0.606590 56.982831 3.967898 9.226660 -17.491022 22.248516 -12.915480 5.550552 0.810527 -9.435909 
0.622108 0.226903 0.985011 80.304666 1.741216 88.722121 6.636492 4.430689 6.934487 -3.682940 -4.529896 1.843892 3.188192 9.742063 -11.179141 0.000000 -0.000000 0.000000 -5.718513 -3.303009 -5.356769 2.385849 -3.163097 17.421629 4.928575 -4.830859 -9.584467 0.000000 -0.000000 0.000000 -2.724626 -0.540118 4.699214 4.014543 -3.817555 -0.839831 1.243710 -3.997491 1.614863 6.951794 -13.147792 6.658735 2.568980 -17.373313 9.783825 -25.383649 5.933712 2.584216 -59.204511 -11.052265 8.794627 7.985712 -25.095112 5.567335 -5.395369 -0.782109 -5.483000 28.207477 -4.944401 -1.150429 57.058017 3.716258 9.056183 -17.228668 20.682393 -13.052550 5.479962 0.946655 -9.442586 
0.621872 0.225911 0.985542 80.333514 1.662114 89.157507 6.495844 4.365535 6.409791 -3.653267 -4.464254 1.947037 3.208097 9.677424 -11.059448 0.000000 -0.000000 0.000000 -5.681629 -3.552473 -5.974313 2.334916 -2.965221 17.538083 4.893081 -4.962214 -9.492147 0.000000 -0.000000 0.000000 -2.579551 -0.344719 4.654607 3.795050 -3.714451 -1.169968 1.007347 -4.087210 1.357808 7.018943 -13.274623 4.705121 3.332099 -17.703492 7.722651 -25.268229 5.870969 2.726358 -59.225528 -10.824005 8.854361 7.599642 -24.733551 6.410054 -5.670802 -0.983105 -5.417612 28.104296 -4.867764 -1.611439 57.343638 3.284806 8.832524 -16.986100 19.023893 -12.696185 5.573950 0.475106 -9.233362 
0.622602 0.226104 0.985879 80.741454 1.616822 89.172022 6.393401 4.150488 6.375616 -3.586367 -4.662779 1.919731 3.125044 9.704907 -11.148569 0.000000 -0.000000 0.000000 -5.734076 -3.035295 -5.684491 2.342624 -3.279197 17.226437 4.884975 -5.473868 -9.491732 0.000000 -0.000000 0.000000 -2.368832 -0.561119 4.830893 3.559309 -3.645984 -1.345729 0.821417 -4.047306 1.333735 7.014732 -13.394211 3.472493 3.321327 -18.161611 7.160143 -25.371113 5.909505 2.494451 -59.263336 -10.691970 9.041415 7.447278 -24.572663 6.785897 -5.946857 -1.011919 -5.346771 28.194480 -4.600813 -1.573243 57.399986 3.275280 8.777414 -16.783842 17.839576 -12.819850 5.513046 0.443786 -9.172344 
